<?xml version="1.0" encoding="utf-8"?>
<!-- Generator: Adobe Illustrator 22.1.0, SVG Export Plug-In . SVG Version: 6.00 Build 0)  -->
<svg version="1.1" id="レイヤー_1" xmlns="http://www.w3.org/2000/svg" xmlns:xlink="http://www.w3.org/1999/xlink" x="0px"
	 y="0px" viewBox="0 0 303 272" style="enable-background:new 0 0 303 272;" xml:space="preserve">
<style type="text/css">
	.st0{fill:#337CE5;}
	.st1{fill:#339EFF;}
	.st2{fill:#6DD3F7;}
	.st3{fill:#31C4F7;}
</style>
<g>
	<g>
		<g>
			<path class="st0" d="M5.2,211.5c12.1,8.2,92.6,59,203.6,52.7c0.1,0,0.2,0,0.2-0.1l88.2-88.6c1.5-1.5,0.4-4-1.7-3.9
				c-23.7,1.3-113.3,2-202.1-53.5L5,209C4.3,209.7,4.4,210.9,5.2,211.5z"/>
			<path class="st1" d="M26.3,168.9c9.7,9,78.1,68.9,182.6,67.8l88.7-89.1c1.4-1.4,0.4-3.8-1.6-3.9c-22.1-0.3-107-5.9-181.2-70.1
				l-88.6,93C25.6,167.3,25.6,168.3,26.3,168.9z"/>
			<path class="st2" d="M62.7,101c6.3,13.7,45.3,88.7,145.2,108.2c0.9,0.2,1.8-0.1,2.4-0.8l88.5-88.9c1.3-1.3,0.6-3.5-1.1-3.8
				c-19.6-4-103.1-25.7-143.5-106.4c-0.7-1.4-2.6-1.7-3.7-0.6L63.4,97.2C62.4,98.2,62.1,99.7,62.7,101z"/>
		</g>
		<path class="st3" d="M72.4,118.2c17.4,27.4,58.2,75.8,135.6,90.9c0.9,0.2,1.8-0.1,2.4-0.8l65.6-65.9
			c-35.4-3.6-101.7-17.4-161.1-68.9L72.4,118.2z"/>
	</g>
</g>
</svg>
