<?xml version="1.0" encoding="utf-8"?>
<!-- Generator: Adobe Illustrator 22.1.0, SVG Export Plug-In . SVG Version: 6.00 Build 0)  -->
<svg version="1.1" id="レイヤー_1" xmlns="http://www.w3.org/2000/svg" xmlns:xlink="http://www.w3.org/1999/xlink" x="0px"
	 y="0px" viewBox="0 0 230 219" style="enable-background:new 0 0 230 219;" xml:space="preserve">
<style type="text/css">
	.st0{fill:#339EFF;}
	.st1{fill:#337CE5;}
	.st2{fill:#D7EDFF;}
	.st3{fill:#6DD3F7;}
</style>
<g>
	<g>
		<path class="st0" d="M197.2,113.2c2.1-1.2,3.2-2.9,3.2-4.5v-1.9v0.1c0.1-1.7-1-3.4-3.3-4.7L109,45.6c-4.3-2.5-11.3-2.5-15.6,0
			L18.8,89.1V111l113.9,64.7v-1.1l0,0v9.9l74.6-43.5c2.1-1.2,3.2-2.9,3.2-4.5v-1.9v0.1c0.1-1.7-1-3.4-3.3-4.7l-3.7-2.1l-10.2-12.6
			L197.2,113.2z"/>
		<polygon class="st1" points="132.8,174.6 132.8,176.5 18.8,111 18.8,109.1 		"/>
		<path class="st0" d="M207.3,130.1c4.3,2.5,4.4,6.5,0.1,9l-74.6,35.5l-114-65.5l74.6-35.5c4.3-2.5,11.3-10.6,15.6-8.1L207.3,130.1z
			"/>
		<g>
			<path class="st2" d="M200.4,112.7l-69,40.2v25l69-40.2c2.1-1.2,3.2-2.9,3.2-4.5v-25C203.6,109.8,202.5,111.5,200.4,112.7z"/>
		</g>
		<path class="st3" d="M207.3,102.1c4.3,2.5,4.4,6.5,0.1,9l-74.6,43.5l-114-65.5l74.6-43.5c4.3-2.5,11.3-2.5,15.6,0L207.3,102.1z"/>
		<polygon class="st0" points="18.8,89.1 18.9,119 132.8,184.6 132.7,154.7 		"/>
	</g>
</g>
</svg>
