<?xml version="1.0" encoding="utf-8"?>
<!-- Generator: Adobe Illustrator 22.1.0, SVG Export Plug-In . SVG Version: 6.00 Build 0)  -->
<svg version="1.1" id="レイヤー_1" xmlns="http://www.w3.org/2000/svg" xmlns:xlink="http://www.w3.org/1999/xlink" x="0px"
	 y="0px" viewBox="0 0 230 219" style="enable-background:new 0 0 230 219;" xml:space="preserve">
<g>
	<path style="fill:#339EFF;" d="M15.2,142.8c7.1,6.6,57.2,50.4,133.7,49.6l64.9-65.2c1-1,0.3-2.8-1.1-2.8
		c-16.1-0.2-78.3-4.3-132.7-51.3l-64.9,68.1C14.7,141.6,14.7,142.3,15.2,142.8z"/>
	<path style="fill:#6DD3F7;" d="M41.9,93c4.6,10,33.2,64.9,106.3,79.2c0.6,0.1,1.3-0.1,1.8-0.6l64.8-65.1c0.9-0.9,0.5-2.5-0.8-2.8
		c-14.3-3-75.5-18.8-105.1-77.9c-0.5-1-1.9-1.3-2.7-0.4L42.4,90.3C41.7,91,41.5,92.1,41.9,93z"/>
	<path style="fill:#B3EDFF;" d="M143.7,147.9l-7.6-4.8c6.8-10.7,8.1-17.4,7.1-20.1c-0.3-0.7-0.8-1.5-2.5-2
		c-3.6-1.1-8.4,0.8-12.5,2.8l-1.1,0.5c-5,2.4-10.7,5.2-17,4.6c-2.7-0.2-5-1.2-6.7-2.8c-4-3.9-3.6-10.4,1.1-17.8c3-4.9,6.2-10,9.4-15
		l0.1-0.2c1.3-2.1,2.8-4.4,3.2-6.6c0.9-4.4-2.5-8.7-6.4-10.4c-5.5-2.4-12.6-2.4-17.3,0l-4-8c7.2-3.6,17-3.7,24.9-0.2
		C121.6,71,128,79,126,88.3c-0.8,3.7-2.7,6.9-4.4,9.6l-0.1,0.2c-3.2,5-6.3,10.1-9.4,15c-2.4,3.8-2.6,6.2-2.4,6.6
		c0.1,0,0.4,0.2,1.1,0.2c3.9,0.4,8.2-1.7,12.3-3.7l1.1-0.5c5.7-2.8,12.5-5.3,19.1-3.2c5.1,1.6,7.3,4.9,8.3,7.5
		C154,126.4,151.4,135.8,143.7,147.9z"/>
</g>
</svg>
