<?xml version="1.0" encoding="utf-8"?>
<!-- Generator: Adobe Illustrator 22.1.0, SVG Export Plug-In . SVG Version: 6.00 Build 0)  -->
<svg version="1.1" id="レイヤー_1" xmlns="http://www.w3.org/2000/svg" xmlns:xlink="http://www.w3.org/1999/xlink" x="0px"
	 y="0px" viewBox="0 0 230 219" style="enable-background:new 0 0 230 219;" xml:space="preserve">
<style type="text/css">
	.st0{fill:#339EFF;}
	.st1{fill:#6DD3F7;}
</style>
<path class="st0" d="M24.2,130.5L61,151.7c1.2,0.7,2.6,0.7,3.7,0l36.5-21.2c2.5-1.4,2.5-5,0-6.4l-36.7-21.2c-1.2-0.7-2.6-0.7-3.7,0
	l-36.5,21.2C21.7,125.5,21.7,129.1,24.2,130.5z"/>
<path class="st1" d="M77.5,99.2l36.7,21.2c1.2,0.7,2.6,0.7,3.7,0l36.5-21.2c2.5-1.4,2.5-5,0-6.4l-36.7-21.2c-1.2-0.7-2.6-0.7-3.7,0
	L77.5,92.8C75,94.2,75,97.8,77.5,99.2z"/>
<path class="st0" d="M130.8,130.5l36.7,21.2c1.2,0.7,2.6,0.7,3.7,0l36.5-21.2c2.5-1.4,2.5-5,0-6.4l-36.7-21.2
	c-1.2-0.7-2.6-0.7-3.7,0l-36.5,21.2C128.3,125.5,128.3,129.1,130.8,130.5z"/>
<path class="st0" d="M77.5,161.7l36.7,21.2c1.2,0.7,2.6,0.7,3.7,0l36.5-21.2c2.5-1.4,2.5-5,0-6.4l-36.7-21.2c-1.2-0.7-2.6-0.7-3.7,0
	l-36.5,21.2C75,156.7,75,160.3,77.5,161.7z"/>
</svg>
