<svg id="レイヤー_1" data-name="レイヤー 1" xmlns="http://www.w3.org/2000/svg" viewBox="0 0 800 69.85"><defs><style>.cls-1{fill:#231815;}</style></defs><path class="cls-1" d="M-7,249.58v-5.14H.86v-54H-7v-5.14H3.62q1.63,0,3.84-.09c1.46-.06,3-.14,4.53-.23l4.44-.27c1.41-.1,2.6-.14,3.58-.14a42.4,42.4,0,0,1,14.14,2.16A27,27,0,0,1,44.42,193a26.1,26.1,0,0,1,6.25,10,40.5,40.5,0,0,1,2.12,13.58,43.55,43.55,0,0,1-2,13.5,27.39,27.39,0,0,1-17,17.76A44.17,44.17,0,0,1,18,250.4c-.92,0-2,0-3.19-.14L11,250l-4.09-.28c-1.38-.09-2.68-.13-3.89-.13Zm25.7-59.85q-2.41,0-4.65.09a21.23,21.23,0,0,0-3.54.37v54.7a12.37,12.37,0,0,0,1.72.14l2.63.09,2.72.1c.86,0,1.47,0,1.81,0a22.43,22.43,0,0,0,10.79-2.34,19.36,19.36,0,0,0,6.94-6.24,25.76,25.76,0,0,0,3.75-9.09,51.57,51.57,0,0,0,1.12-11,42,42,0,0,0-1.07-9.27,25.27,25.27,0,0,0-3.76-8.72A20.33,20.33,0,0,0,30,192.21,23.05,23.05,0,0,0,18.71,189.73Z" transform="translate(6.99 -180.73)"/><path class="cls-1" d="M97.9,236.82c0,1.4,0,2.83.09,4.26s.14,2.74.26,3.91H104v4.59H90.24l-.88-8.73h-.43a11.17,11.17,0,0,1-1.59,3.59,13.52,13.52,0,0,1-2.94,3.12,14.42,14.42,0,0,1-4.18,2.2,16.46,16.46,0,0,1-5.35.82,15.36,15.36,0,0,1-5.39-.91,13,13,0,0,1-4.27-2.57,11.26,11.26,0,0,1-2.8-4,13.21,13.21,0,0,1-1-5.27,14.23,14.23,0,0,1,1.77-7.44,12.14,12.14,0,0,1,5.22-4.63A28.58,28.58,0,0,1,77,223.32a95.87,95.87,0,0,1,12.07-.82,22.55,22.55,0,0,0,.18-2.77v-2.59c0-3.75-.61-6.61-1.81-8.58s-3.37-2.95-6.47-2.95c-1.16,0-2.39.06-3.71.18a9.19,9.19,0,0,0-3.63,1.08v8.28H65.9V205a40.81,40.81,0,0,1,7.37-3.13,32.69,32.69,0,0,1,10-1.37,19.73,19.73,0,0,1,7.94,1.33,10.81,10.81,0,0,1,6.68,8.35,30.8,30.8,0,0,1,.48,5.37c0,3.86-.08,7.54-.22,11.06S97.9,233.51,97.9,236.82Zm-19.06,7.62a9.47,9.47,0,0,0,3.71-.69A11.14,11.14,0,0,0,85.44,242a12.18,12.18,0,0,0,2.15-2.34,18.32,18.32,0,0,0,1.51-2.48V226.26A43.19,43.19,0,0,0,80,227a16.82,16.82,0,0,0-5.47,2.07,6.71,6.71,0,0,0-2.72,3.07,9.9,9.9,0,0,0-.73,3.81q0,4.13,2.07,6.29A7.5,7.5,0,0,0,78.84,244.44Z" transform="translate(6.99 -180.73)"/><path class="cls-1" d="M132.49,249.58H110.67V245h6.38V206h-6.38v-4.59h15.44V245h6.38Zm-17.33-63.06a5.34,5.34,0,0,1,1.76-4.23,6.6,6.6,0,0,1,4.53-1.56,6.53,6.53,0,0,1,4.62,1.56,6.15,6.15,0,0,1,0,8.45,6.53,6.53,0,0,1-4.62,1.56,6.6,6.6,0,0,1-4.53-1.56A5.34,5.34,0,0,1,115.16,186.52Z" transform="translate(6.99 -180.73)"/><path class="cls-1" d="M164.67,238.55a6.18,6.18,0,0,0-1.73-4.32,20.54,20.54,0,0,0-4.31-3.44q-2.58-1.59-5.61-3.2a35.8,35.8,0,0,1-5.6-3.67,18.87,18.87,0,0,1-4.32-4.86,12.64,12.64,0,0,1-1.72-6.75,9.64,9.64,0,0,1,1.21-4.82,12.17,12.17,0,0,1,3.26-3.72,15.32,15.32,0,0,1,4.81-2.43,19.63,19.63,0,0,1,5.9-.87c1.74,0,3.27.06,4.6.18a34.56,34.56,0,0,1,3.65.51,28.44,28.44,0,0,1,3.12.78c1,.3,2,.64,3,1v12.39h-5.52v-7.12l-1.64-2c-.75-.18-1.56-.33-2.42-.45a20,20,0,0,0-2.76-.18q-4.14,0-6.17,1.68a5.23,5.23,0,0,0-2,4.21,6,6,0,0,0,1.72,4.26,21.06,21.06,0,0,0,4.31,3.41c1.73,1.06,3.6,2.1,5.61,3.14a38,38,0,0,1,5.61,3.54,19.09,19.09,0,0,1,4.31,4.54,10.79,10.79,0,0,1,1.73,6.15,12,12,0,0,1-1.43,5.88,13.54,13.54,0,0,1-3.91,4.36,18.49,18.49,0,0,1-5.81,2.75,25.42,25.42,0,0,1-7.07,1,29,29,0,0,1-8.1-1.14,21.71,21.71,0,0,1-6.2-2.71v-12h5.52v6.86l1.72,1.9a8.9,8.9,0,0,0,2.68,1.44,12.54,12.54,0,0,0,4.05.54,11.92,11.92,0,0,0,6.82-1.81A5.73,5.73,0,0,0,164.67,238.55Z" transform="translate(6.99 -180.73)"/><path class="cls-1" d="M185.46,230.48q0-6.06.26-12.39T186,206h-6.56v-4.59H195q-.18,7.16-.3,13.72t-.13,13.63a52,52,0,0,0,.38,6.65,14.41,14.41,0,0,0,1.47,4.91,7.09,7.09,0,0,0,3,3,10.12,10.12,0,0,0,4.83,1,9.85,9.85,0,0,0,7.24-2.93,19,19,0,0,0,4.49-7.9V206h-6.3v-4.59H225V245h6.38v4.59H216.94l-.6-10.47h-.43a13,13,0,0,1-1.68,3.95,16.23,16.23,0,0,1-7.55,6.38,13.92,13.92,0,0,1-5.44,1.05,24,24,0,0,1-6.81-.87,10.19,10.19,0,0,1-4.92-3.17,15.33,15.33,0,0,1-3-6.15A38.76,38.76,0,0,1,185.46,230.48Z" transform="translate(6.99 -180.73)"/><path class="cls-1" d="M261.11,201.39h19V206h-5.52L261.2,222.41,278.8,245h4.31v4.59H270.69l-16.05-22.86h-3.19V245h6.38v4.59H236V245h6.38V185.32h-7.33v-4.59h16.39v42.32h3L267.67,206h-6.56Z" transform="translate(6.99 -180.73)"/><path class="cls-1" d="M327.19,243.24a15.37,15.37,0,0,1-6.37,5.37,21.89,21.89,0,0,1-9.58,2,26.37,26.37,0,0,1-10.09-1.79,19.73,19.73,0,0,1-7.32-5,21.75,21.75,0,0,1-4.46-7.9,33.09,33.09,0,0,1-1.52-10.32q0-12.3,5.81-18.68t16.28-6.38a25.17,25.17,0,0,1,6.8.92,16.15,16.15,0,0,1,5.94,3,15.39,15.39,0,0,1,4.2,5.6,20.65,20.65,0,0,1,1.6,8.63c0,1-.06,2.14-.17,3.31s-.29,2.38-.52,3.67H297.51a25.5,25.5,0,0,0,1,7.34,15.66,15.66,0,0,0,3.05,5.69,14,14,0,0,0,5.09,3.72,17.9,17.9,0,0,0,7.22,1.33,16.56,16.56,0,0,0,6.31-1.19,16.07,16.07,0,0,0,4.66-2.76Zm-17.72-38.46a12.53,12.53,0,0,0-4.73.83,8.37,8.37,0,0,0-3.5,2.75,14.47,14.47,0,0,0-2.34,5.1,37.84,37.84,0,0,0-1.13,7.84h20.88c.05-.55.1-1.11.13-1.69s0-1.12,0-1.61c0-4-.77-7.25-2.29-9.64A7.83,7.83,0,0,0,309.47,204.78Z" transform="translate(6.99 -180.73)"/><path class="cls-1" d="M335.81,208.09a9.54,9.54,0,0,0,3.28-1.75,12.57,12.57,0,0,0,2.5-2.71,11,11,0,0,0,1.9-6.65h-4.92a12.42,12.42,0,0,1-1.12-2.25,6.76,6.76,0,0,1-.43-2.43,9.13,9.13,0,0,1,.22-2.07,10.41,10.41,0,0,1,.56-1.79,14.14,14.14,0,0,1,.77-1.56h9.58a33.19,33.19,0,0,1,1.12,3.58,14.8,14.8,0,0,1,.43,3.58,19.45,19.45,0,0,1-.82,5.42,15.33,15.33,0,0,1-2.46,5,18.54,18.54,0,0,1-3.58,3.67,13.45,13.45,0,0,1-5.47,2.57Z" transform="translate(6.99 -180.73)"/><path class="cls-1" d="M379.38,238.55a6.18,6.18,0,0,0-1.73-4.32,20.8,20.8,0,0,0-4.31-3.44q-2.59-1.59-5.61-3.2a36.37,36.37,0,0,1-5.61-3.67,19,19,0,0,1-4.31-4.86,12.64,12.64,0,0,1-1.73-6.75,9.65,9.65,0,0,1,1.22-4.82,12.13,12.13,0,0,1,3.25-3.72,15.49,15.49,0,0,1,4.82-2.43,19.63,19.63,0,0,1,5.9-.87c1.73,0,3.27.06,4.6.18a34.35,34.35,0,0,1,3.64.51,27.35,27.35,0,0,1,3.12.78c1,.3,2,.64,3,1v12.39h-5.52v-7.12l-1.64-2c-.74-.18-1.55-.33-2.41-.45a20.21,20.21,0,0,0-2.76-.18q-4.14,0-6.17,1.68a5.24,5.24,0,0,0-2,4.21,6,6,0,0,0,1.73,4.26,21.06,21.06,0,0,0,4.31,3.41c1.73,1.06,3.59,2.1,5.61,3.14a37.43,37.43,0,0,1,5.6,3.54,18.94,18.94,0,0,1,4.32,4.54,10.78,10.78,0,0,1,1.72,6.15,11.85,11.85,0,0,1-1.43,5.88,13.4,13.4,0,0,1-3.9,4.36,18.71,18.71,0,0,1-5.81,2.75,25.48,25.48,0,0,1-7.07,1,29.1,29.1,0,0,1-8.11-1.14,21.83,21.83,0,0,1-6.2-2.71v-12h5.52v6.86l1.73,1.9a8.85,8.85,0,0,0,2.67,1.44,12.65,12.65,0,0,0,4.06.54,11.86,11.86,0,0,0,6.81-1.81A5.74,5.74,0,0,0,379.38,238.55Z" transform="translate(6.99 -180.73)"/><path class="cls-1" d="M414.4,190.46v-5.14h9q3.88,0,8.41-.36t8.76-.37a45.19,45.19,0,0,1,9.31,1,23.7,23.7,0,0,1,8.11,3.26,17.79,17.79,0,0,1,5.74,6.1,18.83,18.83,0,0,1,2.2,9.5,18.33,18.33,0,0,1-2.25,9.32,19,19,0,0,1-5.9,6.38,26.35,26.35,0,0,1-8.46,3.67,40.42,40.42,0,0,1-9.87,1.2h-1.56c-.69,0-1.42,0-2.2,0s-1.51-.08-2.2-.14-1.21-.12-1.55-.18v19.83h8.63v5.14H414.4v-5.14h7.85v-54Zm17.51,28.92a4.22,4.22,0,0,0,1.34.23c.6,0,1.25.07,1.94.13a19.93,19.93,0,0,0,2,.1h1.51a22.08,22.08,0,0,0,6.34-.88,14.57,14.57,0,0,0,5.22-2.7,12.6,12.6,0,0,0,3.54-4.78,17.51,17.51,0,0,0,1.29-7.07c0-5-1.48-8.72-4.44-11.1s-7-3.58-12.12-3.58c-1.55,0-2.84,0-3.88.14a20.83,20.83,0,0,0-2.76.41Z" transform="translate(6.99 -180.73)"/><path class="cls-1" d="M471.33,225.53A32.49,32.49,0,0,1,473,214.79a21.8,21.8,0,0,1,4.6-7.85,19.31,19.31,0,0,1,7.24-4.82,25.88,25.88,0,0,1,9.42-1.65,27.09,27.09,0,0,1,10.38,1.79,18,18,0,0,1,7.1,5.05,21,21,0,0,1,4.09,7.89,37.25,37.25,0,0,1,1.34,10.33,32.66,32.66,0,0,1-1.6,10.69A21.33,21.33,0,0,1,511,244a19.35,19.35,0,0,1-7.23,4.82,29,29,0,0,1-19.68-.14,18.8,18.8,0,0,1-7.14-5,20.79,20.79,0,0,1-4.22-7.84A35.67,35.67,0,0,1,471.33,225.53Zm9.66,0a40.33,40.33,0,0,0,.78,8.17,19,19,0,0,0,2.55,6.51,13.21,13.21,0,0,0,4.59,4.36,13.7,13.7,0,0,0,6.88,1.61c3.41,0,6.2-1.65,8.4-5s3.29-8.53,3.29-15.69a41,41,0,0,0-.78-8.22,21,21,0,0,0-2.47-6.61,11.73,11.73,0,0,0-10.77-5.92,10.47,10.47,0,0,0-9.09,5Q481,214.69,481,225.53Z" transform="translate(6.99 -180.73)"/><path class="cls-1" d="M545.6,209.65a12.07,12.07,0,0,0-3.27,2.57,21.68,21.68,0,0,0-2.76,4.22V245h7.5v4.59h-23V245h6.39V206h-6.39v-4.59h15.45v9.27h.34a23.39,23.39,0,0,1,3.45-5.28,24.8,24.8,0,0,1,4.49-4h8.28v8.26Z" transform="translate(6.99 -180.73)"/><path class="cls-1" d="M561.65,201.39h7.68V189.91h9v11.48H592.7v5.87H578.38v26.8q0,5.79,1.38,8.17a4.8,4.8,0,0,0,4.49,2.39,10,10,0,0,0,4.62-1,29.21,29.21,0,0,0,3.58-2.2L594.6,245a15.54,15.54,0,0,1-2.11,1.79,20.45,20.45,0,0,1-6.9,3.16,17.08,17.08,0,0,1-4.36.55q-5.78,0-8.84-3.16t-3.06-10.51V207.26h-7.68Z" transform="translate(6.99 -180.73)"/><path class="cls-1" d="M627.9,180.73a24.36,24.36,0,0,1,5.39.55,31.2,31.2,0,0,1,3.58,1v8.91h-8.28v-5.88a20.15,20.15,0,0,0-5,.55,6.86,6.86,0,0,0-3.49,2.11,10.09,10.09,0,0,0-2.07,4.27,29.81,29.81,0,0,0-.69,7.12v2h11v5.87h-11V245h9.23v4.59H601.93V245h6.39V207.26H601v-5.87h7.33v-1.47q0-9.27,5.22-14.23T627.9,180.73Z" transform="translate(6.99 -180.73)"/><path class="cls-1" d="M635.06,225.53a32.5,32.5,0,0,1,1.63-10.74,22,22,0,0,1,4.61-7.85,19.35,19.35,0,0,1,7.23-4.82,26,26,0,0,1,9.43-1.65,27.09,27.09,0,0,1,10.38,1.79,18.06,18.06,0,0,1,7.1,5.05,21,21,0,0,1,4.09,7.89,37.25,37.25,0,0,1,1.34,10.33,32.93,32.93,0,0,1-1.6,10.69,21.33,21.33,0,0,1-4.56,7.8,19.35,19.35,0,0,1-7.23,4.82,29,29,0,0,1-19.68-.14,18.8,18.8,0,0,1-7.14-5,20.79,20.79,0,0,1-4.22-7.84A35.67,35.67,0,0,1,635.06,225.53Zm9.66,0a40.33,40.33,0,0,0,.78,8.17,19,19,0,0,0,2.55,6.51,13,13,0,0,0,4.59,4.36,13.68,13.68,0,0,0,6.88,1.61q5.1,0,8.39-5t3.29-15.69a41,41,0,0,0-.78-8.22A20.94,20.94,0,0,0,668,210.7a11.74,11.74,0,0,0-10.78-5.92,10.45,10.45,0,0,0-9.08,5Q644.71,214.69,644.72,225.53Z" transform="translate(6.99 -180.73)"/><path class="cls-1" d="M710.54,249.58H688.72V245h6.38V185.32h-7.33v-4.59h16.39V245h6.38Z" transform="translate(6.99 -180.73)"/><path class="cls-1" d="M739.78,249.58H718V245h6.38V206H718v-4.59H733.4V245h6.38Zm-17.34-63.06a5.35,5.35,0,0,1,1.77-4.23,7.49,7.49,0,0,1,9.15,0,6.15,6.15,0,0,1,0,8.45,7.49,7.49,0,0,1-9.15,0A5.34,5.34,0,0,1,722.44,186.52Z" transform="translate(6.99 -180.73)"/><path class="cls-1" d="M747.2,225.53a32.49,32.49,0,0,1,1.64-10.74,21.8,21.8,0,0,1,4.6-7.85,19.31,19.31,0,0,1,7.24-4.82,25.88,25.88,0,0,1,9.42-1.65,27.09,27.09,0,0,1,10.38,1.79,18.06,18.06,0,0,1,7.1,5.05,21,21,0,0,1,4.09,7.89A37.25,37.25,0,0,1,793,225.53a32.66,32.66,0,0,1-1.6,10.69,21.33,21.33,0,0,1-4.56,7.8,19.35,19.35,0,0,1-7.23,4.82,29,29,0,0,1-19.68-.14,18.8,18.8,0,0,1-7.14-5,20.79,20.79,0,0,1-4.22-7.84A35.67,35.67,0,0,1,747.2,225.53Zm9.66,0a40.33,40.33,0,0,0,.78,8.17,19,19,0,0,0,2.55,6.51,13.21,13.21,0,0,0,4.59,4.36,13.7,13.7,0,0,0,6.88,1.61c3.41,0,6.2-1.65,8.4-5s3.29-8.53,3.29-15.69a41,41,0,0,0-.78-8.22,21,21,0,0,0-2.47-6.61,11.74,11.74,0,0,0-10.78-5.92,10.46,10.46,0,0,0-9.08,5Q756.87,214.69,756.86,225.53Z" transform="translate(6.99 -180.73)"/></svg>