<svg id="レイヤー_1" data-name="レイヤー 1" xmlns="http://www.w3.org/2000/svg" viewBox="0 0 580.92 48"><defs><style>.cls-1{fill:#fcfcfc;}</style></defs><path class="cls-1" d="M338.38,312.89a1.5,1.5,0,0,1-.45-1.09V270.13a1.61,1.61,0,0,1,.42-1.15,1.44,1.44,0,0,1,1.12-.45h15.61q18.89,0,19.27,17.41c.08,2.48.12,4.14.12,5s0,2.46-.12,4.93q-.25,9-4.84,13.22t-14.11,4.25H339.47A1.51,1.51,0,0,1,338.38,312.89Zm16.7-7q5.31,0,7.68-2.37t2.5-7.87c.08-2.56.13-4.16.13-4.8s-.05-2.26-.13-4.74c-.09-3.49-1-6.07-2.63-7.71s-4.28-2.46-7.87-2.46H347v30Z" transform="translate(-337.93 -265.97)"/><path class="cls-1" d="M385.83,312.66a10.81,10.81,0,0,1-4.28-3.55,8.69,8.69,0,0,1,1.95-12,21.13,21.13,0,0,1,9.66-3.65l8.77-1.28v-1.34a5.65,5.65,0,0,0-1.41-4.16A6.12,6.12,0,0,0,396,285.3a6.54,6.54,0,0,0-3.39.77,10.44,10.44,0,0,0-2.08,1.57l-1.06,1.05a1,1,0,0,1-1,.77h-5a1.44,1.44,0,0,1-1-.38,1.33,1.33,0,0,1-.42-1,6.85,6.85,0,0,1,1.57-3.61,12.15,12.15,0,0,1,4.64-3.52,17.87,17.87,0,0,1,7.75-1.51q7.54,0,11,3.4a11.87,11.87,0,0,1,3.46,8.89v20.1a1.55,1.55,0,0,1-.42,1.09,1.47,1.47,0,0,1-1.12.44h-5.31a1.51,1.51,0,0,1-1.09-.44,1.49,1.49,0,0,1-.44-1.09v-2.5a10.48,10.48,0,0,1-4,3.36,13.89,13.89,0,0,1-6.4,1.31A13.55,13.55,0,0,1,385.83,312.66Zm13.92-7.13c1.5-1.54,2.24-3.76,2.24-6.66v-1.28l-6.4,1q-7.35,1.15-7.36,4.93a3.59,3.59,0,0,0,1.7,3.17,7.16,7.16,0,0,0,4.06,1.12A7.69,7.69,0,0,0,399.75,305.53Z" transform="translate(-337.93 -265.97)"/><path class="cls-1" d="M419,274.17a1.5,1.5,0,0,1-.45-1.09v-4.67a1.58,1.58,0,0,1,.45-1.16,1.51,1.51,0,0,1,1.09-.44h5.89a1.53,1.53,0,0,1,1.6,1.6v4.67a1.45,1.45,0,0,1-.48,1.09,1.63,1.63,0,0,1-1.12.44H420A1.51,1.51,0,0,1,419,274.17Zm.26,38.72a1.5,1.5,0,0,1-.45-1.09V281.59a1.45,1.45,0,0,1,.45-1.12,1.53,1.53,0,0,1,1.09-.42h5.44a1.52,1.52,0,0,1,1.53,1.54V311.8a1.5,1.5,0,0,1-1.53,1.53H420.3A1.51,1.51,0,0,1,419.21,312.89Z" transform="translate(-337.93 -265.97)"/><path class="cls-1" d="M440.27,312.5a12.88,12.88,0,0,1-4.84-3.42,5.8,5.8,0,0,1-1.56-3.36,1.33,1.33,0,0,1,.41-1,1.44,1.44,0,0,1,1-.38h5.25a1.12,1.12,0,0,1,.9.51l1.44,1.22a8.38,8.38,0,0,0,2.56,1.5,8.92,8.92,0,0,0,3.16.55,7.76,7.76,0,0,0,4.17-1,3.17,3.17,0,0,0,1.6-2.84,2.94,2.94,0,0,0-.74-2.08,6.58,6.58,0,0,0-2.63-1.48,50.88,50.88,0,0,0-5.66-1.5c-3.63-.77-6.3-1.94-8-3.52a8.08,8.08,0,0,1-2.59-6.27,8.48,8.48,0,0,1,1.53-4.83,11.06,11.06,0,0,1,4.58-3.72,16.82,16.82,0,0,1,7.26-1.44,18.52,18.52,0,0,1,7.49,1.38,13,13,0,0,1,4.77,3.3,5.58,5.58,0,0,1,1.63,3.39,1.35,1.35,0,0,1-.42,1,1.32,1.32,0,0,1-1,.42h-4.8a1.24,1.24,0,0,1-1.08-.52c-.3-.21-.78-.6-1.44-1.18a8.45,8.45,0,0,0-2.21-1.38,7.61,7.61,0,0,0-2.95-.51,5.64,5.64,0,0,0-3.64,1,3.24,3.24,0,0,0-1.28,2.68,3,3,0,0,0,.6,1.92,5.51,5.51,0,0,0,2.47,1.44,38.1,38.1,0,0,0,5.57,1.38q11.5,2.24,11.52,10.05a8.68,8.68,0,0,1-3.94,7.36q-3.93,2.82-11,2.81A19.75,19.75,0,0,1,440.27,312.5Z" transform="translate(-337.93 -265.97)"/><path class="cls-1" d="M472.9,310.13q-3.39-3.84-3.39-10.56v-18a1.45,1.45,0,0,1,.45-1.12,1.53,1.53,0,0,1,1.09-.42h5.76a1.52,1.52,0,0,1,1.53,1.54v17.6q0,7.88,6.85,7.87a6.83,6.83,0,0,0,5.28-2.11,8.17,8.17,0,0,0,1.95-5.76v-17.6a1.45,1.45,0,0,1,.45-1.12,1.53,1.53,0,0,1,1.09-.42h5.7a1.51,1.51,0,0,1,1.12.42,1.54,1.54,0,0,1,.41,1.12V311.8a1.59,1.59,0,0,1-.41,1.09,1.48,1.48,0,0,1-1.12.44h-5.32a1.52,1.52,0,0,1-1.53-1.53v-2.63q-3.53,4.8-10.63,4.8A11.77,11.77,0,0,1,472.9,310.13Z" transform="translate(-337.93 -265.97)"/><path class="cls-1" d="M510.15,312.89a1.5,1.5,0,0,1-.45-1.09V269.43a1.45,1.45,0,0,1,.45-1.12,1.53,1.53,0,0,1,1.09-.42h5.31a1.54,1.54,0,0,1,1.54,1.54v21.89l10.62-10.18a5.83,5.83,0,0,0,.61-.48,2.65,2.65,0,0,1,.8-.48,3.28,3.28,0,0,1,1-.13h6.08a1.35,1.35,0,0,1,1,.39,1.36,1.36,0,0,1,.39,1,1.6,1.6,0,0,1-.64,1.15L524.87,295l14.66,15.87a1.6,1.6,0,0,1,.57,1.09,1.37,1.37,0,0,1-.38,1,1.3,1.3,0,0,1-1,.38h-6.21a2.89,2.89,0,0,1-1.31-.22,5.28,5.28,0,0,1-1.06-.86l-12.09-12.87V311.8a1.52,1.52,0,0,1-1.54,1.53h-5.31A1.51,1.51,0,0,1,510.15,312.89Z" transform="translate(-337.93 -265.97)"/><path class="cls-1" d="M548,309.88q-4.2-4.1-4.45-11.65l-.06-1.6q0-8,4.19-12.61t11.61-4.61q7.62,0,11.75,4.61t4.13,12.29v1.34a1.48,1.48,0,0,1-.45,1.09,1.57,1.57,0,0,1-1.15.45H552.33v.51a9.87,9.87,0,0,0,1.95,5.92,6,6,0,0,0,5,2.34,7.22,7.22,0,0,0,6-2.95,3.47,3.47,0,0,1,.89-.86,2.59,2.59,0,0,1,1.09-.16h5.63a1.59,1.59,0,0,1,1,.32,1.06,1.06,0,0,1,.42.9,6,6,0,0,1-1.82,3.61,15.22,15.22,0,0,1-5.22,3.62,19,19,0,0,1-7.87,1.53Q552.2,314,548,309.88Zm18.33-16.13v-.13a9.22,9.22,0,0,0-1.88-6.05,6.37,6.37,0,0,0-5.16-2.27,6.27,6.27,0,0,0-5.12,2.27,9.32,9.32,0,0,0-1.85,6.05v.13Z" transform="translate(-337.93 -265.97)"/><path class="cls-1" d="M579.81,281.85a1.46,1.46,0,0,1-.22-1l1.73-10.88a2.81,2.81,0,0,1,.61-1.47,1.78,1.78,0,0,1,1.44-.58h6a1.22,1.22,0,0,1,1.15,1.16,2.55,2.55,0,0,1-.19.89l-4.16,10.69a2.19,2.19,0,0,1-2.11,1.6h-3.33A1,1,0,0,1,579.81,281.85Z" transform="translate(-337.93 -265.97)"/><path class="cls-1" d="M598.47,312.5a12.75,12.75,0,0,1-4.83-3.42,5.76,5.76,0,0,1-1.57-3.36,1.33,1.33,0,0,1,.42-1,1.41,1.41,0,0,1,1-.38h5.25a1.09,1.09,0,0,1,.89.51l1.44,1.22a8.5,8.5,0,0,0,2.56,1.5,9,9,0,0,0,3.17.55,7.72,7.72,0,0,0,4.16-1,3.15,3.15,0,0,0,1.6-2.84,2.94,2.94,0,0,0-.74-2.08,6.53,6.53,0,0,0-2.62-1.48,52.13,52.13,0,0,0-5.66-1.5q-5.44-1.15-8-3.52a8.12,8.12,0,0,1-2.59-6.27,8.41,8.41,0,0,1,1.54-4.83,11,11,0,0,1,4.57-3.72,16.86,16.86,0,0,1,7.27-1.44,18.52,18.52,0,0,1,7.49,1.38,12.92,12.92,0,0,1,4.76,3.3,5.6,5.6,0,0,1,1.64,3.39,1.43,1.43,0,0,1-1.41,1.41H614a1.27,1.27,0,0,1-1.09-.52c-.3-.21-.78-.6-1.44-1.18a8.29,8.29,0,0,0-2.21-1.38,7.59,7.59,0,0,0-2.94-.51,5.67,5.67,0,0,0-3.65,1,3.27,3.27,0,0,0-1.28,2.68,3,3,0,0,0,.61,1.92,5.41,5.41,0,0,0,2.46,1.44,38.79,38.79,0,0,0,5.57,1.38q11.52,2.24,11.52,10.05a8.65,8.65,0,0,1-3.94,7.36q-3.93,2.82-11,2.81A19.8,19.8,0,0,1,598.47,312.5Z" transform="translate(-337.93 -265.97)"/><path class="cls-1" d="M651,312.89a1.49,1.49,0,0,1-.44-1.09V270.13A1.61,1.61,0,0,1,651,269a1.45,1.45,0,0,1,1.12-.45h17.15q7.75,0,12.16,3.65t4.42,10.63q0,6.9-4.42,10.46t-12.16,3.55h-9.4v15a1.45,1.45,0,0,1-.45,1.12,1.62,1.62,0,0,1-1.15.41H652.1A1.51,1.51,0,0,1,651,312.89Zm17.92-23.24a8.16,8.16,0,0,0,5.67-1.76,6.58,6.58,0,0,0,1.95-5.15,6.93,6.93,0,0,0-1.89-5.18q-1.89-1.86-5.73-1.86h-9.21v13.95Z" transform="translate(-337.93 -265.97)"/><path class="cls-1" d="M695.17,310.13q-4.09-3.84-4.41-10.62l-.07-2.82.07-2.81q.32-6.72,4.48-10.59t11.58-3.88q7.36,0,11.52,3.88t4.48,10.59c0,.51.06,1.45.06,2.81s0,2.31-.06,2.82q-.32,6.78-4.42,10.62T706.82,314Q699.27,314,695.17,310.13ZM712,305.4a9.82,9.82,0,0,0,2-6.21c0-.43.06-1.26.06-2.5s0-2.07-.06-2.49a9.78,9.78,0,0,0-2-6.24,6.47,6.47,0,0,0-5.18-2.15,6.58,6.58,0,0,0-5.25,2.15,9.72,9.72,0,0,0-2,6.24l-.07,2.49.07,2.5a9.59,9.59,0,0,0,2,6.21,6.62,6.62,0,0,0,5.25,2.11A6.53,6.53,0,0,0,712,305.4Z" transform="translate(-337.93 -265.97)"/><path class="cls-1" d="M730.44,312.89a1.5,1.5,0,0,1-.45-1.09V281.65a1.55,1.55,0,0,1,.45-1.15,1.46,1.46,0,0,1,1.08-.45h5.25a1.54,1.54,0,0,1,1.6,1.6v2.63q3.2-4.23,9.22-4.23h2.69a1.52,1.52,0,0,1,1.12.42,1.54,1.54,0,0,1,.41,1.12v4.67a1.57,1.57,0,0,1-.41,1.09,1.47,1.47,0,0,1-1.12.45h-5.06a6,6,0,0,0-6.46,6.46V311.8a1.52,1.52,0,0,1-1.54,1.53h-5.7A1.49,1.49,0,0,1,730.44,312.89Z" transform="translate(-337.93 -265.97)"/><path class="cls-1" d="M765.7,310.29c-2-2-2.94-5-2.94-8.92V286.9H757.7a1.48,1.48,0,0,1-1.09-.45,1.46,1.46,0,0,1-.45-1.08v-3.78a1.54,1.54,0,0,1,1.54-1.54h5.06V269.43a1.45,1.45,0,0,1,.44-1.12,1.53,1.53,0,0,1,1.09-.42h5.31a1.49,1.49,0,0,1,1.12.42,1.51,1.51,0,0,1,.42,1.12v10.62h8a1.5,1.5,0,0,1,1.09.45,1.48,1.48,0,0,1,.45,1.09v3.78a1.46,1.46,0,0,1-.45,1.08,1.5,1.5,0,0,1-1.09.45h-8v13.76a7.39,7.39,0,0,0,1,4.16,3.51,3.51,0,0,0,3.14,1.41h4.47a1.45,1.45,0,0,1,1.54,1.54v4a1.55,1.55,0,0,1-.42,1.09,1.47,1.47,0,0,1-1.12.44h-5.24Q768.64,313.33,765.7,310.29Z" transform="translate(-337.93 -265.97)"/><path class="cls-1" d="M793.54,312.89a1.5,1.5,0,0,1-.45-1.09V286.9h-5.18a1.48,1.48,0,0,1-1.09-.45,1.46,1.46,0,0,1-.45-1.08v-3.78a1.54,1.54,0,0,1,1.54-1.54h5.18v-2.56q0-5.82,3.14-8.67T805.7,266h4.42a1.54,1.54,0,0,1,1.53,1.54v3.78a1.46,1.46,0,0,1-.45,1.08,1.47,1.47,0,0,1-1.08.45H806A4.39,4.39,0,0,0,802.5,274a5.79,5.79,0,0,0-1,3.77v2.24h8a1.54,1.54,0,0,1,1.54,1.54v3.78a1.46,1.46,0,0,1-.45,1.08,1.48,1.48,0,0,1-1.09.45h-8v24.9a1.54,1.54,0,0,1-.41,1.09,1.48,1.48,0,0,1-1.12.44h-5.31A1.51,1.51,0,0,1,793.54,312.89Z" transform="translate(-337.93 -265.97)"/><path class="cls-1" d="M819.2,310.13q-4.1-3.84-4.41-10.62l-.07-2.82.07-2.81q.32-6.72,4.48-10.59t11.58-3.88q7.36,0,11.52,3.88t4.48,10.59c0,.51.06,1.45.06,2.81s0,2.31-.06,2.82q-.32,6.78-4.42,10.62T830.85,314Q823.31,314,819.2,310.13Zm16.87-4.73a9.82,9.82,0,0,0,1.95-6.21c0-.43.06-1.26.06-2.5s0-2.07-.06-2.49a9.84,9.84,0,0,0-2-6.24,6.51,6.51,0,0,0-5.19-2.15A6.58,6.58,0,0,0,825.6,288a9.78,9.78,0,0,0-2,6.24l-.07,2.49.07,2.5a9.65,9.65,0,0,0,2,6.21,6.62,6.62,0,0,0,5.25,2.11A6.53,6.53,0,0,0,836.07,305.4Z" transform="translate(-337.93 -265.97)"/><path class="cls-1" d="M854.53,312.89a1.5,1.5,0,0,1-.45-1.09V269.43a1.45,1.45,0,0,1,.45-1.12,1.53,1.53,0,0,1,1.09-.42H861a1.49,1.49,0,0,1,1.12.42,1.51,1.51,0,0,1,.42,1.12V311.8a1.55,1.55,0,0,1-.42,1.09,1.47,1.47,0,0,1-1.12.44h-5.37A1.51,1.51,0,0,1,854.53,312.89Z" transform="translate(-337.93 -265.97)"/><path class="cls-1" d="M871.23,274.17a1.49,1.49,0,0,1-.44-1.09v-4.67a1.57,1.57,0,0,1,.44-1.16,1.51,1.51,0,0,1,1.09-.44h5.89a1.53,1.53,0,0,1,1.6,1.6v4.67a1.45,1.45,0,0,1-.48,1.09,1.63,1.63,0,0,1-1.12.44h-5.89A1.51,1.51,0,0,1,871.23,274.17Zm.26,38.72a1.5,1.5,0,0,1-.45-1.09V281.59a1.45,1.45,0,0,1,.45-1.12,1.53,1.53,0,0,1,1.09-.42H878a1.52,1.52,0,0,1,1.53,1.54V311.8a1.5,1.5,0,0,1-1.53,1.53h-5.44A1.51,1.51,0,0,1,871.49,312.89Z" transform="translate(-337.93 -265.97)"/><path class="cls-1" d="M891.14,310.13q-4.1-3.84-4.42-10.62l-.06-2.82.06-2.81q.31-6.72,4.48-10.59t11.59-3.88q7.35,0,11.51,3.88t4.49,10.59c0,.51.06,1.45.06,2.81s0,2.31-.06,2.82q-.33,6.78-4.42,10.62T902.79,314Q895.23,314,891.14,310.13ZM908,305.4a9.7,9.7,0,0,0,2-6.21c0-.43.07-1.26.07-2.5s0-2.07-.07-2.49a9.72,9.72,0,0,0-2-6.24,7.4,7.4,0,0,0-10.43,0,9.78,9.78,0,0,0-2,6.24l-.06,2.49.06,2.5a9.65,9.65,0,0,0,2,6.21,6.59,6.59,0,0,0,5.25,2.11A6.49,6.49,0,0,0,908,305.4Z" transform="translate(-337.93 -265.97)"/></svg>